<?xml version="1.0" encoding="UTF-8"?>
<svg width="1080px" height="127px" viewBox="0 0 1080 127" version="1.1" xmlns="http://www.w3.org/2000/svg" xmlns:xlink="http://www.w3.org/1999/xlink">
    <!-- Generator: Sketch 58 (84663) - https://sketch.com -->
    <title>organizer-logo</title>
    <desc>Created with Sketch.</desc>
    <g id="Page-1" stroke="none" stroke-width="1" fill="none" fill-rule="evenodd">
        <g id="organizer-logo" transform="translate(0.000000, -18.000000)">
            <g id="gd_gdg_lockup_horizontal_color" transform="translate(0.000000, 18.440433)" fill-rule="nonzero">
                <g id="Group">
                    <path d="M62.2868412,63.4892318 L104.674346,39.0165544 C114.64989,33.2575163 118.067584,20.5015746 112.308129,10.5264482 C106.548674,0.551321785 93.7944012,-2.86762452 83.8180228,2.89266563 L10.574861,45.1800064 L62.2868412,63.4892318 Z" id="Path" fill="#EA4335"></path>
                    <path d="M94.2263604,126.388328 C101.435279,126.388328 108.444703,122.647186 112.308129,115.956619 C118.067584,105.98191 114.64989,93.2255507 104.674346,87.4665126 L31.4307673,45.1800064 C21.4543889,39.4172122 8.70011653,42.83908 2.94066109,52.813789 C-2.81879435,62.7901675 0.598899895,75.5448572 10.5744437,81.3038952 L83.8180228,123.590401 C87.1025818,125.487265 90.6888861,126.388328 94.2263604,126.388328 Z" id="Path" fill="#4285F4"></path>
                    <path d="M167.085141,126.388328 C170.62345,126.388328 174.208502,125.487265 177.493479,123.590401 L250.736223,81.3038952 L199.681155,62.6148797 L156.637155,87.4660952 C146.661611,93.2251333 143.243917,105.981075 149.003372,115.956201 C152.865964,122.647186 159.877057,126.388328 167.085141,126.388328 Z" id="Path" fill="#FBBC04"></path>
                    <path d="M240.288237,84.101822 C247.497155,84.101822 254.50658,80.3619321 258.370006,73.6701127 C264.129461,63.6954036 260.711767,50.9402966 250.736223,45.1800064 L177.493479,2.89224827 C167.517935,-2.86678981 154.763663,0.55006973 149.003372,10.5260308 C143.243917,20.5007399 146.661611,33.2558469 156.637155,39.0161371 L229.879899,81.3038952 C233.164458,83.1995073 236.750763,84.101822 240.288237,84.101822 Z" id="Path" fill="#0F9D58"></path>
                </g>
            </g>
            <text id="GDG-Istanbul" font-family="GoogleSans-Medium, Google Sans" font-size="126.448686" font-weight="400" fill="#757575">
                <tspan x="291.731644" y="122">GDG Istanbul</tspan>
            </text>
        </g>
    </g>
</svg>